<?xml version="1.0" standalone="no"?>
<!DOCTYPE svg PUBLIC "-//W3C//DTD SVG 20010904//EN"
 "http://www.w3.org/TR/2001/REC-SVG-20010904/DTD/svg10.dtd">
<svg version="1.0" xmlns="http://www.w3.org/2000/svg"
 width="725.000000pt" height="772.000000pt" viewBox="0 0 725.000000 772.000000"
 preserveAspectRatio="xMidYMid meet">
<metadata>
Created by potrace 1.16, written by Peter Selinger 2001-2019
</metadata>
<g transform="translate(0.000000,772.000000) scale(0.100000,-0.100000)"
fill="#000000" stroke="none">
<path d="M3985 7645 c-7 -11 -33 -18 -85 -22 -42 -3 -82 -12 -91 -20 -10 -9
-44 -14 -93 -15 -63 -1 -76 -4 -74 -17 3 -13 -9 -17 -60 -19 -51 -2 -63 -6
-58 -17 4 -11 -5 -17 -35 -21 -22 -4 -47 -14 -55 -22 -9 -8 -29 -15 -45 -14
-22 0 -29 -4 -29 -19 0 -13 -7 -19 -23 -19 -12 0 -30 -9 -40 -20 -10 -12 -29
-20 -47 -20 -19 0 -30 -5 -30 -14 0 -8 -15 -17 -34 -20 -19 -4 -37 -13 -40
-21 -3 -8 -17 -15 -31 -15 -14 0 -33 -9 -42 -20 -10 -11 -24 -20 -33 -20 -9 0
-23 -9 -33 -20 -11 -13 -29 -20 -53 -20 -28 0 -35 -3 -30 -15 3 -10 -3 -17
-21 -21 -15 -4 -42 -22 -60 -41 -19 -18 -40 -33 -47 -33 -8 0 -13 -8 -12 -17
0 -10 -5 -17 -11 -16 -8 2 -13 -8 -13 -23 0 -19 -4 -25 -15 -20 -10 4 -15 -1
-15 -14 0 -11 -7 -20 -15 -20 -8 0 -15 -9 -15 -20 0 -11 -7 -20 -15 -20 -8 0
-15 -7 -15 -16 0 -9 -9 -18 -20 -21 -11 -3 -20 -12 -20 -19 0 -12 -19 -19 -42
-15 -5 0 -8 -8 -8 -18 0 -10 -6 -21 -13 -24 -8 -3 -22 -21 -31 -41 -9 -20 -21
-34 -27 -31 -5 4 -9 -5 -9 -20 0 -14 -7 -28 -15 -31 -8 -4 -15 -17 -15 -29 0
-13 -4 -26 -9 -29 -13 -9 -51 -89 -51 -109 0 -9 -5 -16 -12 -15 -7 2 -13 -4
-14 -12 0 -8 -2 -23 -2 -34 -1 -12 -7 -16 -17 -12 -11 4 -15 -1 -15 -18 0 -13
-13 -48 -30 -79 -17 -31 -30 -63 -30 -72 0 -8 -4 -15 -9 -15 -5 0 -10 -69 -12
-153 -3 -115 -8 -158 -18 -171 -8 -10 -16 -38 -18 -64 -1 -26 -7 -48 -13 -50
-13 -5 -12 -456 1 -532 6 -30 13 -106 16 -169 3 -78 10 -119 19 -129 8 -7 14
-31 14 -51 0 -21 7 -58 15 -81 21 -59 21 -218 0 -226 -8 -4 -15 -16 -15 -28 0
-12 -7 -31 -15 -42 -8 -10 -15 -41 -15 -69 0 -27 -7 -61 -15 -75 -8 -14 -15
-52 -15 -85 0 -33 -6 -68 -14 -77 -16 -21 -13 -185 3 -201 6 -6 11 -29 11 -52
0 -23 7 -50 15 -61 8 -10 15 -35 15 -55 0 -23 6 -39 15 -43 9 -3 15 -19 15
-41 0 -20 7 -43 15 -51 8 -9 15 -26 15 -38 0 -13 7 -29 15 -36 8 -7 15 -21 15
-31 0 -11 7 -19 15 -19 8 0 15 -9 15 -20 0 -13 7 -20 20 -20 11 0 28 -9 37
-20 13 -15 30 -20 65 -20 70 0 77 -16 79 -172 0 -71 5 -126 9 -123 10 6 20
-55 20 -122 0 -29 4 -53 9 -53 6 0 13 -21 17 -47 3 -27 11 -54 17 -61 7 -8 12
-110 15 -265 2 -139 8 -256 13 -262 5 -5 9 -94 9 -198 0 -157 -2 -188 -14
-184 -10 4 -12 0 -9 -14 3 -11 -1 -21 -11 -25 -9 -3 -16 -12 -16 -20 0 -8 -8
-14 -18 -14 -9 0 -23 -9 -30 -20 -7 -11 -23 -20 -37 -20 -15 0 -25 -6 -25 -15
0 -8 -11 -17 -24 -21 -14 -3 -27 -12 -30 -20 -3 -8 -11 -14 -17 -14 -6 0 -22
-10 -35 -22 -51 -50 -61 -58 -79 -58 -10 0 -15 -3 -12 -7 14 -13 -16 -33 -50
-33 -19 0 -32 -4 -28 -9 8 -14 -7 -20 -58 -24 -25 -2 -53 -12 -62 -21 -12 -11
-34 -16 -76 -16 -44 0 -59 -4 -59 -14 0 -20 -23 -26 -98 -26 -41 0 -62 -4 -53
-9 20 -13 3 -18 -86 -26 -46 -4 -81 -11 -78 -15 8 -12 -22 -20 -76 -20 -35 0
-49 -4 -49 -14 0 -20 -19 -25 -109 -27 -50 -1 -79 -6 -78 -12 3 -15 -46 -24
-138 -26 -50 -1 -75 -5 -66 -10 19 -12 -6 -19 -99 -26 -41 -4 -77 -10 -80 -14
-9 -15 -45 -20 -154 -22 -79 -2 -112 -7 -123 -17 -8 -9 -42 -17 -84 -20 -46
-3 -69 -9 -69 -17 0 -15 -22 -25 -52 -25 -12 0 -26 -7 -32 -15 -6 -9 -25 -16
-43 -18 -21 -1 -34 -8 -37 -19 -2 -11 -14 -18 -29 -18 -16 0 -26 -7 -30 -20
-3 -12 -14 -20 -26 -20 -11 0 -25 -9 -31 -20 -6 -11 -15 -20 -20 -20 -6 0 -19
-9 -30 -20 -12 -12 -25 -18 -29 -15 -5 2 -11 -4 -14 -15 -3 -11 -12 -20 -21
-20 -9 0 -16 -4 -16 -10 0 -12 -59 -70 -71 -70 -5 0 -9 -7 -9 -15 0 -8 -6 -15
-13 -15 -19 0 -38 -53 -35 -99 3 -36 5 -39 15 -24 7 9 13 24 13 33 0 19 125
142 225 221 74 58 176 122 216 134 13 4 29 11 35 16 25 20 156 59 197 59 23 0
70 7 102 15 33 9 96 18 140 21 44 3 100 12 125 19 25 8 74 19 110 24 36 5 85
15 110 21 73 19 232 -3 215 -30 -3 -4 2 -14 11 -21 8 -7 30 -35 49 -63 46 -69
67 -81 105 -61 17 9 30 22 30 29 0 13 14 23 34 24 5 0 13 6 17 14 7 10 9 9 9
-4 0 -20 19 -23 68 -9 20 6 30 6 27 0 -4 -5 3 -10 14 -10 12 -1 35 -3 51 -6
56 -8 115 -8 145 -1 29 7 29 7 5 -5 -14 -7 -37 -20 -50 -31 l-25 -18 56 6 c60
6 78 -3 122 -64 11 -15 16 -18 13 -7 -8 27 2 20 19 -14 9 -17 19 -28 22 -25 3
3 1 11 -5 19 -13 15 -33 97 -23 97 3 0 14 -17 24 -38 92 -184 288 -375 562
-545 120 -74 357 -197 380 -197 6 0 -44 29 -110 63 -114 60 -158 86 -320 187
-120 76 -214 149 -286 223 -38 39 -69 75 -69 78 0 4 -20 31 -43 61 -34 41 -87
135 -87 153 0 2 17 -1 37 -5 20 -5 40 -7 44 -4 4 2 20 -13 36 -33 28 -38 65
-70 72 -64 2 1 7 -2 10 -7 3 -5 29 -21 57 -35 28 -14 87 -54 130 -88 44 -34
84 -66 91 -71 20 -16 61 -19 105 -8 49 13 87 21 106 22 6 1 12 5 12 10 0 4 7
8 16 8 8 0 13 3 11 8 -3 4 1 13 9 20 8 7 14 10 14 6 0 -4 9 3 20 16 11 13 20
17 20 10 0 -10 3 -10 15 0 8 7 12 17 8 24 -4 6 0 6 9 -2 12 -9 23 -10 44 -2
21 8 30 8 32 0 3 -8 8 -7 19 1 8 7 24 13 36 14 12 1 30 5 40 10 12 5 17 3 17
-9 0 -13 5 -12 35 5 19 12 35 24 35 27 0 4 12 8 26 9 15 0 29 5 33 10 3 4 20
16 36 25 17 10 29 23 27 29 -4 15 38 50 51 42 5 -3 7 -1 4 4 -7 11 20 28 36
24 5 -1 6 3 2 9 -3 5 3 10 14 10 12 0 21 7 21 15 0 8 5 15 10 15 6 0 10 7 10
15 0 8 23 29 50 46 48 30 70 50 31 29 -11 -5 -28 -10 -38 -9 -16 1 -16 2 2 7
11 4 44 25 74 47 30 21 61 40 69 42 19 2 61 43 44 43 -6 0 -21 -9 -32 -20 -13
-13 -20 -16 -20 -7 0 16 47 40 61 31 5 -3 23 5 40 17 25 17 30 27 26 48 -4 22
2 31 44 61 27 19 52 43 55 53 3 9 13 17 23 17 10 0 24 7 31 15 7 8 9 15 5 15
-4 0 -2 7 5 15 7 8 15 13 19 11 9 -4 41 31 33 38 -3 3 2 6 11 6 8 0 18 8 22
19 7 22 50 71 63 71 5 0 30 20 56 45 36 34 43 45 29 45 -10 0 -29 -7 -41 -16
-12 -8 -22 -11 -22 -6 0 5 19 17 42 28 22 10 57 30 77 44 64 46 94 62 85 49
-4 -7 7 -2 25 10 18 13 35 30 38 37 3 8 10 14 17 14 16 0 111 88 108 101 -4
16 26 41 40 33 7 -4 10 -3 5 1 -9 10 31 55 50 55 33 0 217 216 241 283 9 27
30 63 45 80 20 23 27 26 22 12 -4 -11 -11 -60 -15 -110 -5 -49 -14 -142 -20
-205 -6 -63 -10 -185 -8 -270 l3 -155 47 -75 c26 -41 61 -91 79 -110 182 -200
253 -253 354 -264 47 -5 72 -14 115 -45 30 -21 81 -46 114 -55 32 -10 70 -26
85 -36 45 -32 189 -83 208 -74 16 7 15 8 -4 11 -15 3 -23 12 -23 24 0 14 -7
19 -29 19 -15 0 -40 9 -54 20 -14 11 -34 20 -45 20 -29 0 -53 11 -46 21 3 5
-3 9 -13 10 -10 1 -29 2 -43 2 -17 2 -25 7 -24 19 1 13 -5 18 -21 18 -34 0
-55 10 -55 26 0 8 -10 14 -24 14 -15 0 -26 7 -29 20 -4 15 -14 20 -41 20 -23
0 -39 5 -42 15 -4 10 -20 15 -51 15 -48 0 -87 15 -78 31 4 5 -4 9 -15 9 -13 0
-24 8 -27 20 -3 11 -12 20 -20 20 -31 0 -243 243 -243 279 0 5 -4 11 -10 13
-21 7 -28 128 -19 338 5 118 13 224 18 235 5 11 12 56 15 99 2 43 9 82 15 85
5 3 13 19 16 34 4 15 14 27 22 27 8 0 13 8 11 18 -2 9 3 16 10 15 7 -2 12 7
12 22 0 14 7 28 15 31 9 4 15 19 15 39 0 20 6 35 15 39 9 3 15 18 15 36 0 17
7 38 15 46 8 9 15 33 15 55 0 24 5 42 13 45 8 3 14 25 16 57 1 28 6 56 11 62
4 5 11 56 15 113 4 56 12 102 17 102 5 0 7 4 3 9 -9 15 7 20 70 22 42 2 63 8
74 21 8 10 21 18 28 18 7 0 13 9 13 20 0 11 7 20 15 20 8 0 15 8 15 18 0 9 7
26 15 36 8 11 15 30 15 43 0 13 4 23 9 23 5 0 12 16 15 35 4 19 11 35 15 35 5
0 11 18 15 40 3 22 10 40 15 40 5 0 11 38 13 85 2 47 10 91 16 97 15 15 17
299 2 314 -10 10 -17 77 -19 187 -1 43 -5 66 -11 62 -6 -4 -10 5 -10 19 0 14
-3 25 -7 25 -5 -1 -18 -1 -30 0 -22 1 -23 4 -23 111 0 81 3 110 13 110 8 0 12
22 13 72 1 44 6 74 13 76 6 2 11 25 11 52 0 58 10 111 20 105 4 -2 8 26 9 63
1 37 9 80 17 96 8 16 14 50 14 75 1 25 7 57 15 71 8 14 14 52 15 86 0 37 6 68
15 80 9 12 14 42 15 80 0 42 5 65 15 74 9 8 15 30 15 60 0 26 7 61 15 78 22
43 16 392 -7 467 -28 89 -67 163 -99 187 -17 12 -44 36 -60 52 -16 15 -29 25
-29 21 0 -3 -12 3 -26 14 -15 12 -37 21 -50 21 -15 0 -24 6 -24 15 0 8 -7 16
-15 16 -8 1 -19 3 -25 4 -5 1 -19 3 -30 4 -11 0 -20 8 -20 16 0 8 -9 19 -19
25 -11 5 -27 31 -36 57 -53 148 -68 183 -75 183 -5 0 -11 8 -14 18 -3 9 -26
39 -51 65 -25 27 -45 51 -45 54 0 12 -63 63 -79 63 -9 0 -27 9 -41 20 -14 11
-31 20 -38 20 -7 0 -15 6 -18 14 -3 8 -18 16 -35 20 -17 3 -29 12 -29 21 0 9
-9 15 -22 15 -27 0 -51 14 -46 26 1 5 -12 10 -30 12 -26 3 -32 7 -27 21 4 14
-2 17 -32 18 -22 1 -40 7 -45 17 -5 9 -17 16 -28 16 -28 0 -50 11 -50 25 0 7
-18 15 -41 18 -23 3 -45 11 -50 18 -4 7 -29 16 -56 19 -27 3 -47 10 -46 17 1
6 -21 14 -53 18 -33 4 -57 12 -61 21 -8 22 -334 21 -348 -1z m45 -481 c0 -35
-17 -30 -18 6 0 17 4 28 9 25 5 -4 9 -17 9 -31z m285 6 c3 -5 1 -10 -4 -10 -6
0 -11 5 -11 10 0 6 2 10 4 10 3 0 8 -4 11 -10z m224 -61 c-19 -11 -19 -9 -6
34 l12 39 3 -33 c2 -18 -2 -35 -9 -40z m191 52 c0 -6 -4 -13 -10 -16 -5 -3
-10 1 -10 9 0 9 5 16 10 16 6 0 10 -4 10 -9z m265 -31 c9 -16 13 -30 11 -30
-3 0 -12 14 -21 30 -9 17 -13 30 -11 30 3 0 12 -13 21 -30z m-715 0 c0 -5 -2
-10 -4 -10 -3 0 -8 5 -11 10 -3 6 -1 10 4 10 6 0 11 -4 11 -10z m693 -42 c4
-10 4 -18 2 -18 -6 0 -35 56 -35 67 0 10 25 -27 33 -49z m-218 12 c3 -5 1 -10
-4 -10 -6 0 -11 5 -11 10 0 6 2 10 4 10 3 0 8 -4 11 -10z m-205 -10 c0 -5 -7
-10 -16 -10 -8 0 -12 5 -9 10 3 6 10 10 16 10 5 0 9 -4 9 -10z m493 -53 c-7
-12 -19 3 -28 33 l-8 25 21 -25 c11 -14 18 -29 15 -33z m182 -417 c-3 -5 -11
-10 -16 -10 -6 0 -7 5 -4 10 3 6 11 10 16 10 6 0 7 -4 4 -10z m-1106 -66 c-19
-21 -20 -24 -5 -18 15 6 17 4 11 -6 -5 -9 -4 -11 4 -6 6 4 9 11 7 15 -3 3 3 7
12 7 9 0 30 3 45 7 21 6 27 5 21 -4 -5 -9 4 -11 34 -7 31 5 39 3 35 -8 -3 -9
7 -7 36 7 40 19 41 19 60 0 15 -15 26 -17 60 -11 32 6 41 4 41 -6 0 -17 22
-18 37 -3 9 9 16 8 28 -4 9 -9 23 -13 33 -10 15 6 15 4 4 -9 -11 -14 -10 -16
7 -11 12 3 21 1 21 -6 0 -6 -4 -11 -10 -11 -5 0 -10 -5 -10 -10 0 -6 11 -8 25
-4 15 4 25 2 25 -5 0 -6 6 -11 14 -11 24 0 63 -25 58 -38 -2 -6 4 -12 12 -12
25 0 116 -49 123 -65 3 -8 12 -15 19 -15 19 0 174 -157 194 -196 19 -36 78
-98 108 -113 12 -7 22 -20 22 -29 0 -10 7 -28 16 -40 9 -13 14 -32 11 -42 -3
-13 -1 -17 10 -13 9 4 13 0 11 -9 -2 -9 6 -24 17 -34 12 -11 16 -16 10 -12
-20 13 -26 -4 -7 -19 15 -13 15 -13 -5 -4 -12 6 -23 14 -25 18 -3 5 -3 2 -2
-4 2 -7 -1 -13 -6 -13 -5 0 -1 -16 10 -35 25 -45 25 -48 3 -56 -15 -5 -13 -8
12 -22 24 -13 26 -16 10 -17 -11 0 -16 -3 -10 -8 6 -4 11 -16 10 -27 0 -11 4
-23 9 -27 5 -3 11 -14 12 -24 2 -10 10 -21 19 -26 19 -11 10 -29 -11 -21 -12
5 -12 -1 3 -33 10 -22 20 -41 23 -44 3 -3 5 -19 5 -37 -1 -17 2 -30 5 -28 3 2
10 -12 16 -30 6 -19 7 -32 2 -28 -6 3 -2 -9 7 -27 10 -18 19 -42 20 -54 17
-103 21 -134 15 -131 -7 4 -7 4 -9 -219 -1 -101 5 -200 15 -269 9 -60 14 -117
11 -128 -18 -67 55 25 75 96 7 25 13 34 15 22 3 -9 9 -14 15 -11 6 4 6 -1 -1
-13 -6 -11 -8 -23 -5 -26 3 -3 -5 -21 -19 -39 -34 -47 -45 -82 -13 -43 14 17
25 34 26 38 0 5 5 5 11 1 6 -3 8 -17 5 -30 -4 -13 -2 -24 4 -24 20 0 41 -50
66 -154 14 -58 30 -104 35 -100 14 8 11 -145 -5 -228 -17 -89 -98 -277 -136
-318 -26 -28 -33 -30 -98 -30 -39 0 -73 -4 -76 -9 -11 -18 -38 -158 -42 -218
-2 -34 -9 -74 -16 -90 -12 -31 -16 -44 -22 -88 -3 -16 -9 -43 -14 -60 -6 -16
-13 -42 -16 -57 -4 -17 -13 -28 -23 -28 -13 0 -14 -3 -5 -12 16 -16 15 -28 -3
-28 -9 0 -12 -6 -9 -15 4 -9 0 -15 -10 -15 -9 0 -16 -7 -16 -15 0 -8 -5 -15
-11 -15 -6 0 -9 -9 -6 -20 3 -13 -1 -21 -14 -25 -10 -4 -19 -14 -19 -24 0 -9
-13 -25 -30 -34 -16 -10 -30 -22 -30 -28 0 -5 -7 -9 -16 -9 -9 0 -14 -6 -11
-12 7 -20 -13 -50 -28 -44 -8 3 -21 -1 -29 -9 -7 -8 -26 -17 -41 -21 -22 -6
-26 -4 -19 7 6 10 1 9 -18 -3 -20 -13 -28 -14 -39 -5 -11 10 -11 9 0 -6 16
-20 16 -19 -22 -35 -37 -16 -60 -16 -51 1 4 6 -3 3 -15 -8 -18 -16 -25 -17
-42 -7 -12 8 -19 8 -19 2 0 -7 -6 -8 -19 0 -29 15 -34 12 -17 -12 14 -19 14
-23 -2 -34 -9 -8 -21 -13 -27 -13 -5 0 -2 6 9 14 10 7 15 19 11 25 -5 8 -11 7
-23 -2 -14 -11 -15 -10 -9 6 5 12 3 23 -5 28 -10 6 -10 10 -1 16 13 8 8 20
-21 42 -18 14 -19 13 -13 -2 3 -10 2 -18 -4 -18 -6 0 -7 -4 -4 -10 3 -5 2 -10
-4 -10 -7 0 -7 -8 -1 -25 6 -16 6 -25 0 -25 -6 0 -10 5 -10 12 0 6 -3 8 -6 5
-4 -4 -20 10 -35 30 -16 20 -29 32 -29 28 0 -4 -7 -2 -15 5 -20 16 -19 1 0
-20 18 -19 10 -50 -12 -50 -21 0 -40 -23 -35 -40 4 -12 2 -13 -9 -2 -7 6 -23
12 -35 12 -18 0 -21 5 -17 23 l4 22 -13 -22 c-11 -18 -16 -20 -30 -9 -10 7
-18 23 -18 35 0 11 -5 21 -11 21 -6 0 -8 -9 -4 -20 8 -24 2 -25 -30 -4 -14 9
-25 24 -25 33 -1 12 -3 11 -13 -5 -7 -12 -20 -20 -29 -19 -10 2 -22 -4 -28
-13 -5 -10 -10 -12 -10 -5 0 6 7 18 15 27 23 23 19 39 -6 25 -17 -9 -23 -8
-30 2 -6 10 -9 9 -15 -5 -6 -16 -8 -17 -16 -2 -5 9 -7 25 -3 35 3 11 1 22 -4
25 -6 4 -7 14 -4 24 5 14 4 15 -8 4 -7 -7 -18 -31 -24 -54 -11 -44 -29 -59
-39 -33 -3 9 -2 14 3 11 4 -3 6 7 3 22 -5 21 -7 23 -10 8 -3 -15 -6 -16 -14
-5 -7 10 -8 8 -3 -8 4 -14 2 -23 -4 -23 -6 0 -11 7 -11 15 0 8 -6 12 -14 9
-17 -7 -41 32 -26 41 5 3 10 11 10 16 0 6 -4 8 -9 4 -5 -3 -13 0 -17 6 -3 6 0
15 7 20 9 6 10 9 2 9 -6 0 -15 9 -18 21 -4 13 -12 18 -21 15 -8 -3 -13 -2 -10
3 3 5 -1 15 -10 22 -13 11 -14 9 -9 -13 5 -20 2 -26 -14 -31 -23 -6 -40 11
-22 22 8 5 6 14 -8 30 -11 12 -22 18 -25 12 -3 -5 -2 -11 4 -13 6 -2 6 -9 0
-18 -8 -13 -11 -12 -23 4 -8 12 -19 16 -26 11 -10 -6 -11 -3 -3 12 9 15 7 19
-9 19 -12 0 -18 -5 -15 -13 3 -7 1 -13 -3 -13 -14 0 -23 -33 -11 -40 7 -5 6
-11 -5 -20 -13 -11 -14 -10 -9 5 7 16 5 16 -21 -1 -28 -18 -29 -18 -23 3 3 11
1 27 -4 34 -8 11 -9 10 -4 -3 3 -10 1 -20 -4 -23 -6 -4 -10 -1 -10 5 0 6 -4 9
-9 5 -5 -3 -13 0 -17 6 -4 8 -3 9 4 5 7 -4 12 -1 12 8 0 27 -19 18 -33 -16 -8
-18 -24 -42 -36 -52 -21 -19 -21 -19 -18 10 2 17 7 36 12 43 6 10 4 12 -5 6
-10 -6 -11 -1 -6 21 l8 29 -32 -30 c-19 -19 -29 -23 -25 -12 4 9 11 17 15 17
14 0 20 29 10 52 -5 13 -9 18 -9 12 -1 -6 -14 -14 -30 -17 -18 -4 -32 -14 -36
-27 -7 -21 -35 -28 -35 -9 0 8 -6 7 -17 -2 -11 -10 -14 -10 -9 -1 7 12 1 14
-41 15 -19 0 -22 4 -17 23 4 15 2 24 -6 24 -6 0 -8 -4 -5 -10 3 -5 3 -15 -1
-22 -5 -8 -10 -6 -15 8 -10 25 -11 44 -1 43 22 -4 31 3 25 19 -6 15 -5 15 11
3 15 -13 19 -13 27 0 12 18 7 29 -18 46 -18 12 -21 12 -19 -2 0 -10 -8 -23
-19 -31 -19 -12 -21 -12 -21 6 0 14 5 18 16 15 12 -4 16 1 16 16 -1 15 14 32
49 56 28 19 48 37 47 40 -8 12 23 21 31 10 5 -7 6 -4 3 9 -5 16 1 24 30 37 19
10 40 14 47 10 13 -8 140 -14 272 -12 159 2 179 4 193 12 6 5 16 6 21 2 5 -3
26 6 47 20 20 14 43 25 50 25 21 0 17 24 -7 38 -12 8 -18 19 -15 28 3 9 1 12
-4 9 -16 -10 -23 24 -9 43 7 9 9 14 5 10 -5 -4 -15 -3 -22 3 -7 5 -32 10 -56
9 -97 -2 -110 -1 -122 9 -6 5 -21 10 -31 11 -98 3 -191 8 -195 10 -3 1 -8 2
-12 2 -3 -1 -12 6 -19 15 -12 13 -11 18 7 32 20 15 20 16 -18 43 -21 16 -42
28 -48 28 -5 0 -10 4 -10 10 0 5 -6 7 -14 4 -22 -9 -31 17 -10 30 58 34 209
42 336 18 26 -5 50 -6 55 -1 4 4 55 11 113 14 91 6 116 5 185 -14 43 -12 109
-35 146 -52 84 -36 189 -39 189 -4 0 7 7 18 15 25 8 7 15 18 15 24 0 6 -5 3
-11 -7 -10 -17 -12 -17 -34 7 -12 14 -25 23 -27 21 -2 -2 -17 -6 -33 -8 -29
-4 -66 11 -185 78 -25 14 -52 25 -62 25 -9 0 -22 8 -27 18 -6 9 -11 13 -11 8
0 -5 -6 -3 -14 3 -11 9 -17 8 -30 -4 -14 -14 -17 -14 -38 7 -12 12 -32 23 -43
23 -12 1 -27 5 -35 10 -10 6 -12 4 -7 -9 6 -14 3 -16 -16 -10 -12 4 -38 9 -57
10 -19 1 -55 9 -79 18 -60 22 -139 22 -195 1 -25 -10 -46 -21 -46 -25 0 -4
-12 -7 -27 -7 -16 0 -36 -3 -45 -7 -13 -6 -18 -4 -18 9 0 9 4 14 9 10 5 -3 12
-1 15 4 3 5 -10 7 -29 5 l-34 -3 19 32 c24 38 25 47 5 47 -8 0 -15 8 -15 18 0
14 -2 15 -10 2 -8 -13 -10 -12 -10 4 0 27 -15 9 -15 -18 -1 -20 4 -22 29 -19
28 3 29 3 11 -17 -10 -11 -24 -20 -31 -20 -8 0 -17 -12 -20 -26 -6 -22 -10
-25 -33 -19 -32 8 -39 14 -25 23 6 4 8 15 5 24 -6 16 -8 16 -31 -5 -14 -12
-34 -24 -45 -25 -11 -2 -25 -8 -30 -12 -7 -6 -11 -2 -11 10 0 10 3 17 7 14 4
-2 5 5 2 16 -4 16 -9 18 -25 9 -11 -6 -23 -19 -25 -29 -3 -10 -12 -21 -20 -24
-12 -5 -14 -1 -10 16 4 17 -5 11 -38 -24 -24 -27 -52 -48 -62 -48 -17 -1 -17
-1 1 -15 23 -17 14 -20 -14 -5 -11 6 -21 6 -24 1 -4 -5 -18 -5 -35 2 -21 8
-37 26 -58 71 -15 34 -32 64 -38 68 -5 4 -6 8 -2 8 5 0 1 7 -7 16 -19 19 -21
34 -4 34 7 0 3 7 -9 15 -12 9 -20 21 -17 28 2 7 -2 33 -11 57 -10 27 -12 47
-6 53 11 11 3 37 -11 37 -6 0 -7 -8 -3 -17 5 -14 4 -15 -6 -6 -10 10 -10 15 0
27 10 12 9 21 -3 44 -12 23 -13 32 -3 35 6 3 4 6 -7 6 -12 1 -16 6 -12 17 4
10 -1 23 -11 33 -13 11 -17 28 -15 56 4 59 4 58 -2 85 -9 47 -18 70 -30 70 -6
0 -3 5 7 11 9 6 15 15 12 20 -4 5 1 23 9 40 9 17 13 36 9 42 -3 5 -1 7 4 4 6
-4 16 0 23 8 11 13 10 14 -4 9 -18 -7 -19 15 -1 29 6 4 5 10 -3 15 -8 5 -10
16 -6 27 5 13 4 16 -5 11 -7 -5 -20 -1 -29 7 -9 7 -25 17 -35 20 -15 6 -16 10
-6 28 8 15 8 19 0 15 -6 -4 -11 -3 -11 2 0 5 14 12 31 16 22 4 30 10 25 21 -8
22 11 18 24 -4 7 -14 6 -21 -3 -24 -7 -3 -4 -6 6 -6 15 -1 16 -5 7 -21 -10
-18 2 -31 13 -12 2 4 3 2 1 -4 -4 -18 12 -35 34 -37 21 -1 32 -17 12 -17 -5 0
-10 -5 -10 -11 0 -6 9 -4 22 5 18 13 45 14 159 10 119 -5 148 -3 225 16 81 20
158 56 149 70 -2 3 12 16 31 29 57 39 33 33 -62 -15 -68 -34 -103 -46 -149
-50 l-60 -4 47 17 c51 19 70 33 47 33 -8 0 -21 -6 -27 -12 -10 -10 -15 -10
-22 2 -9 13 -11 13 -20 0 -7 -12 -12 -12 -22 -2 -13 13 -32 17 -24 4 3 -5 -1
-9 -9 -9 -8 0 -13 3 -10 6 3 2 -7 10 -22 17 -20 9 -23 13 -10 13 21 1 51 27
43 39 -4 7 35 10 166 16 20 0 36 3 36 6 -1 3 2 13 7 23 4 10 5 33 2 52 l-6 34
40 -21 c41 -21 64 -50 51 -63 -4 -4 9 -5 28 -1 92 16 110 18 110 13 0 -3 -9
-22 -21 -41 -21 -36 -18 -66 5 -47 17 14 14 -45 -4 -82 -11 -23 -11 -30 -1
-36 16 -10 16 -17 -2 -44 -8 -12 -17 -42 -20 -67 -3 -25 -9 -61 -12 -79 l-7
-35 55 47 c30 26 57 47 60 47 3 0 3 -10 -1 -22 -7 -29 -36 -56 -68 -64 -14 -4
-28 -13 -31 -20 -3 -8 -9 -12 -14 -9 -11 8 -49 -68 -49 -99 0 -20 -29 -66 -60
-96 -3 -3 -15 -19 -27 -36 -30 -43 -38 -80 -22 -98 46 -49 94 -111 91 -118 -1
-4 5 -8 14 -8 8 0 13 -3 10 -8 -2 -4 2 -15 9 -25 10 -14 18 -16 39 -7 25 9 27
8 21 -10 -5 -15 -2 -20 11 -20 13 0 14 -3 4 -15 -7 -8 -9 -22 -6 -31 5 -13 9
-14 21 -4 8 7 15 19 15 26 0 8 24 39 53 70 28 30 59 69 67 87 10 21 36 43 82
69 37 21 88 60 113 87 51 55 105 85 134 76 44 -14 68 -14 120 0 34 9 57 11 59
5 7 -19 20 -10 15 10 -3 11 0 20 6 20 6 0 11 13 11 29 0 31 -46 80 -78 82 -81
7 -105 1 -158 -37 -31 -22 -31 -22 -60 -3 -16 10 -41 19 -56 19 -29 0 -38 7
-103 83 -22 26 -45 47 -51 47 -16 0 -31 20 -40 54 -4 18 -3 27 3 23 5 -4 10
10 11 31 2 66 4 76 19 111 9 20 14 59 13 100 -2 100 -2 207 2 296 4 116 -5
143 -67 215 -30 35 -57 72 -61 82 -3 11 -12 17 -19 14 -7 -2 -16 2 -19 10 -3
8 -13 14 -22 14 -9 0 -29 11 -45 25 -21 17 -38 23 -59 20 -17 -2 -28 1 -25 6
4 5 -7 14 -22 20 -15 6 -40 17 -54 25 -14 7 -29 11 -32 8 -3 -3 -16 -7 -30 -8
-19 -2 -24 1 -19 12 3 10 1 13 -6 8 -11 -7 -76 -16 -152 -21 -57 -4 -171 -46
-213 -78 -24 -18 -38 -22 -55 -16 -12 5 -22 11 -22 13 0 3 7 3 16 -1 14 -5 15
-3 5 16 -9 17 -9 21 1 19 22 -5 14 26 -9 37 -13 5 -23 17 -22 25 0 10 2 11 6
3 2 -7 9 -13 14 -13 6 0 6 8 -1 19 -14 27 -13 31 8 24 15 -6 15 -5 3 10 -7 9
-10 25 -7 34 6 15 8 15 16 3 6 -9 10 -10 10 -3 0 6 -5 15 -11 18 -7 5 -4 14 7
26 17 19 17 20 -2 13 -12 -4 -9 1 9 13 15 11 24 23 20 27 -4 4 0 4 10 0 13 -5
20 1 28 25 6 17 15 28 20 25 5 -3 6 2 3 10 -4 10 3 20 20 27 14 7 23 15 21 19
-3 5 2 11 11 14 8 3 13 10 10 15 -3 5 1 14 9 21 7 6 12 17 9 24 -3 7 0 24 5
39 7 18 7 28 0 33 -15 9 -3 96 15 109 8 7 19 23 24 36 6 13 23 31 38 39 16 8
43 24 59 36 17 12 41 25 54 29 13 4 42 16 65 27 34 16 36 18 11 13 -41 -9 -22
9 30 28 22 8 63 24 90 35 92 36 93 36 68 18 -32 -24 -28 -33 12 -28 19 2 35 8
35 12 0 13 64 39 108 45 27 3 42 1 42 -6 0 -6 -9 -9 -20 -6 -11 3 -20 2 -20
-2 0 -4 -9 -7 -20 -8 -11 -1 -30 -9 -42 -18 -22 -16 -22 -17 22 -10 43 6 44 5
25 -11 l-20 -17 20 8 c11 4 45 13 75 20 30 7 88 23 128 35 76 22 117 22 70 0
-26 -12 -38 -30 -20 -30 15 1 53 40 48 49 -4 5 2 12 13 16 11 3 36 19 56 35
21 17 45 30 55 30 9 0 29 14 44 31 15 17 30 28 34 25 3 -3 -5 -18 -19 -32z
m-154 -65 c-8 -12 -56 -32 -63 -25 -2 3 11 12 29 20 43 18 41 18 34 5z m-160
-49 c-3 -5 -12 -10 -18 -10 -7 0 -6 4 3 10 19 12 23 12 15 0z m-105 -25 c-14
-8 -29 -14 -35 -14 -5 0 1 6 15 14 14 8 30 14 35 14 6 0 -1 -6 -15 -14z m57 9
c-3 -3 -12 -4 -19 -1 -8 3 -5 6 6 6 11 1 17 -2 13 -5z m1613 -28 c0 -4 -11 -5
-25 -2 -14 4 -25 2 -25 -3 0 -5 -15 -6 -36 -1 -59 13 -51 20 19 17 37 -1 67
-6 67 -11z m-170 -16 c0 -5 -2 -10 -4 -10 -3 0 -8 5 -11 10 -3 6 -1 10 4 10 6
0 11 -4 11 -10z m60 -490 c0 -5 -2 -10 -4 -10 -3 0 -8 5 -11 10 -3 6 -1 10 4
10 6 0 11 -4 11 -10z m-2440 -214 c0 -2 -7 -7 -16 -10 -8 -3 -12 -2 -9 4 6 10
25 14 25 6z m2485 -96 c3 -5 2 -10 -4 -10 -5 0 -13 5 -16 10 -3 6 -2 10 4 10
5 0 13 -4 16 -10z m-2535 -70 c0 -5 -4 -10 -10 -10 -5 0 -10 5 -10 10 0 6 5
10 10 10 6 0 10 -4 10 -10z m89 -41 c-14 -10 -26 -14 -28 -8 -4 13 31 39 43
32 5 -3 -2 -14 -15 -24z m706 13 c-3 -3 -11 0 -18 7 -9 10 -8 11 6 5 10 -3 15
-9 12 -12z m-802 -32 c-3 -12 -8 -19 -11 -16 -5 6 5 36 12 36 2 0 2 -9 -1 -20z
m-12 -76 c-11 -15 -21 -21 -21 -14 0 15 31 52 38 46 2 -3 -5 -17 -17 -32z
m345 -34 c2 0 3 5 2 11 -2 7 12 12 31 13 28 1 44 -8 95 -56 33 -32 66 -58 72
-58 6 0 17 -6 23 -14 7 -8 25 -17 40 -21 28 -6 115 -89 140 -135 13 -23 13
-24 -2 -12 -9 8 -24 12 -33 10 -12 -2 0 -12 33 -31 54 -29 82 -64 40 -51 -12
3 -42 17 -67 29 -28 14 -52 20 -64 16 -11 -4 -38 -4 -61 -1 -23 4 -103 5 -178
3 -115 -2 -136 0 -141 13 -4 10 -13 14 -22 10 -9 -3 -12 -2 -9 4 8 14 73 45
109 54 15 4 26 9 24 11 -2 3 -37 -4 -77 -16 -41 -11 -76 -18 -78 -15 -3 2 5
13 16 23 12 9 21 23 21 31 0 7 7 15 15 18 9 4 13 15 11 30 -3 13 0 26 5 30 6
3 -4 17 -22 30 -18 13 -28 24 -21 24 6 0 9 6 6 14 -3 8 0 17 5 21 6 3 9 10 6
15 -3 4 6 7 20 5 16 -1 25 3 25 12 0 12 3 12 16 -1 8 -9 17 -16 20 -16z m299
-560 c-3 -5 -11 -10 -16 -10 -6 0 -7 5 -4 10 3 6 11 10 16 10 6 0 7 -4 4 -10z
m515 -960 c0 -5 -4 -10 -10 -10 -5 0 -10 5 -10 10 0 6 5 10 10 10 6 0 10 -4
10 -10z m-492 -288 c-2 -10 -13 -17 -25 -16 -12 0 -19 -4 -16 -9 3 -5 0 -7 -8
-5 -8 3 -13 11 -11 17 1 7 -2 10 -8 6 -6 -4 -17 -1 -25 5 -12 10 -16 9 -21 -4
-5 -13 -10 -14 -20 -5 -17 14 7 41 55 61 32 13 36 12 58 -10 13 -13 23 -31 21
-40z m-285 35 c8 7 53 -21 86 -53 13 -13 27 -21 32 -18 13 8 11 -10 -3 -24 -9
-9 -9 -12 1 -12 11 0 11 -3 1 -15 -7 -8 -10 -21 -7 -28 7 -20 -18 -48 -37 -41
-9 3 -16 10 -16 16 0 5 -4 6 -10 3 -5 -3 -10 -2 -10 4 0 5 -13 22 -30 38 -16
15 -30 35 -30 43 0 9 -5 21 -12 28 -9 9 -9 15 0 24 8 8 8 15 1 24 -6 7 -7 19
-3 25 5 9 10 8 19 -4 7 -9 15 -14 18 -10z m880 -157 c3 -11 1 -18 -4 -14 -5 3
-9 12 -9 20 0 20 7 17 13 -6z m-538 -429 c-3 -6 -11 -8 -17 -5 -6 4 -5 9 3 15
16 10 23 4 14 -10z m-28 -17 c-3 -3 -12 -4 -19 -1 -8 3 -5 6 6 6 11 1 17 -2
13 -5z m287 -29 c-4 -8 -11 -15 -16 -15 -6 0 -5 6 2 15 7 8 14 15 16 15 2 0 1
-7 -2 -15z m14 -26 c-2 -6 -7 -10 -11 -9 -4 0 -15 -6 -24 -15 -8 -9 -18 -14
-21 -11 -6 7 37 46 50 46 5 0 8 -5 6 -11z m125 -13 c4 -10 1 -13 -8 -9 -8 3
-12 9 -9 14 7 12 11 11 17 -5z m-299 -38 c-5 -8 -1 -9 12 -5 19 7 19 7 0 -8
-10 -8 -23 -12 -27 -9 -10 6 0 34 13 34 5 0 6 -5 2 -12z m680 -184 c3 -8 2
-12 -4 -9 -6 3 -10 10 -10 16 0 14 7 11 14 -7z m-44 -54 c0 -5 -4 -10 -9 -10
-6 0 -13 5 -16 10 -3 6 1 10 9 10 9 0 16 -4 16 -10z m130 -20 c0 -5 -4 -10
-10 -10 -5 0 -10 5 -10 10 0 6 5 10 10 10 6 0 10 -4 10 -10z m150 -380 c0 -5
-2 -10 -4 -10 -3 0 -8 5 -11 10 -3 6 -1 10 4 10 6 0 11 -4 11 -10z m-1885
-333 c-22 -12 -50 -19 -41 -10 11 12 51 30 56 26 3 -3 -4 -10 -15 -16z m-605
-207 c-8 -5 -24 -9 -35 -9 l-20 0 20 9 c11 5 27 9 35 9 13 1 13 0 0 -9z m123
-227 c-7 -2 -19 -2 -25 0 -7 3 -2 5 12 5 14 0 19 -2 13 -5z"/>
<path d="M4030 6499 c-22 -18 -22 -19 -3 -10 12 6 25 16 28 21 9 15 3 12 -25
-11z"/>
<path d="M2933 5578 c2 -22 11 -23 31 -2 20 20 20 19 -8 19 -17 0 -24 -5 -23
-17z"/>
<path d="M4415 5558 c-47 -26 -96 -32 -88 -13 3 10 -2 12 -17 8 -13 -3 -19
-11 -16 -19 3 -8 -1 -14 -9 -14 -8 0 -15 -7 -15 -16 0 -9 5 -12 11 -8 7 4 10
1 7 -6 -2 -7 -16 -14 -31 -16 -22 -2 -27 1 -27 19 0 17 -7 11 -26 -23 -14 -25
-33 -54 -42 -64 -9 -11 -11 -16 -5 -12 9 5 11 2 7 -8 -3 -9 -12 -16 -19 -16
-7 0 -15 -7 -19 -15 -3 -8 -1 -15 4 -15 6 0 9 -6 7 -12 -1 -7 4 -12 11 -10 10
2 12 -12 11 -53 -1 -30 -6 -55 -11 -55 -5 0 -4 -8 1 -18 7 -13 6 -23 -2 -31
-8 -8 -8 -14 -2 -19 6 -4 10 -13 11 -19 2 -31 5 -35 18 -30 11 4 13 1 9 -11
-3 -9 -3 -14 2 -10 4 4 19 -7 32 -24 12 -18 23 -29 23 -25 0 4 9 -1 21 -12 18
-16 19 -22 7 -41 -11 -18 -11 -23 5 -35 11 -7 41 -19 68 -26 27 -7 48 -18 48
-23 -3 -22 1 -36 9 -34 13 4 112 -36 112 -45 0 -5 6 -7 13 -4 6 2 29 -2 51 -9
42 -15 136 -19 136 -6 0 5 -21 7 -46 6 -58 -3 -96 10 -88 31 6 16 -15 27 -75
39 -29 5 -32 4 -21 -9 15 -18 7 -19 -21 -4 -11 6 -17 15 -12 22 5 9 2 8 -9 -1
-12 -10 -18 -9 -28 3 -11 13 -8 15 16 15 16 0 53 -7 83 -15 43 -11 71 -12 134
-4 44 6 87 14 96 18 9 5 25 5 36 1 19 -7 18 -8 -7 -20 -16 -7 -28 -17 -28 -22
0 -4 8 -4 18 1 45 25 77 31 142 31 25 0 61 2 81 5 l37 6 -15 30 c-8 16 -19 27
-24 23 -5 -3 -8 -1 -7 4 3 11 -42 56 -72 72 -28 15 -25 -2 5 -30 14 -13 25
-27 25 -31 0 -7 -45 8 -95 31 -49 23 -164 52 -212 54 -29 0 -55 6 -57 11 -2 6
-22 10 -44 9 -66 -1 -59 22 11 37 40 8 55 15 42 19 -28 10 -132 1 -178 -15
-50 -18 -70 -19 -42 -3 11 7 22 11 24 9 4 -3 21 21 21 31 0 3 -13 9 -30 13
-30 7 -37 15 -22 29 4 4 7 13 7 19 1 7 6 11 13 10 7 -2 12 2 12 7 0 6 7 10 15
10 8 0 15 5 15 10 0 6 5 10 11 10 6 0 24 11 41 25 16 14 40 25 53 25 13 0 25
6 27 12 3 7 18 13 34 14 17 1 48 13 70 26 21 14 50 29 64 33 l25 8 -25 -22
-25 -21 28 10 c36 13 68 13 87 0 13 -9 13 -11 0 -21 -12 -9 -11 -10 5 -4 11 4
25 8 30 9 6 1 15 4 20 7 13 8 71 25 110 33 24 5 27 4 15 -5 -12 -9 -10 -10 10
-5 14 3 34 6 45 6 11 0 -9 15 -45 32 -195 94 -186 91 -219 80 -30 -11 -31 -10
-20 10 10 18 9 20 -5 15 -8 -3 -18 -2 -20 2 -6 9 -122 36 -149 34 -9 -1 -15 2
-12 7 3 4 -4 6 -16 3 -12 -3 -24 -1 -28 5 -5 8 -15 7 -35 -4 -16 -8 -31 -12
-34 -9 -3 3 0 5 6 5 7 0 12 5 12 10 0 14 -10 12 -55 -12z m44 -22 c-2 -2 -17
-6 -34 -10 -22 -5 -26 -4 -15 4 14 9 59 15 49 6z m171 -6 c11 -8 7 -9 -15 -4
-37 8 -45 14 -19 14 10 0 26 -5 34 -10z m-290 -63 c0 -2 -8 -12 -19 -21 -17
-15 -19 -15 -25 -1 -3 9 -2 13 3 10 5 -3 12 -1 16 5 6 9 25 14 25 7z m-93 -42
c0 -8 -4 -15 -9 -15 -10 0 -11 14 -1 23 9 10 10 9 10 -8z m611 -1 c-34 -18
-34 -22 -5 -34 l22 -9 -22 0 c-13 -1 -23 4 -23 9 0 14 -27 12 -33 -2 -3 -10
-8 -10 -18 1 -8 8 -9 11 -2 7 6 -3 15 0 20 7 4 8 22 19 38 25 43 15 54 14 23
-4z m-632 -26 c4 -6 3 -8 -4 -4 -6 3 -14 -3 -17 -15 -4 -11 -9 -18 -12 -16 -5
5 14 47 22 47 2 0 7 -5 11 -12z m344 -570 c0 -6 -7 -7 -16 -4 -9 3 -22 6 -30
6 -8 0 -14 4 -14 8 0 5 14 7 30 4 17 -2 30 -9 30 -14z"/>
<path d="M5010 5363 c0 -4 16 -19 34 -33 19 -14 31 -29 28 -34 -3 -5 2 -7 11
-3 9 3 19 2 22 -3 9 -15 27 -12 20 3 -4 6 1 3 9 -7 20 -24 31 -15 17 13 -14
26 -141 84 -141 64z"/>
<path d="M4550 5309 c0 -5 5 -7 10 -4 6 3 10 8 10 11 0 2 -4 4 -10 4 -5 0 -10
-5 -10 -11z"/>
<path d="M5170 5245 c7 -9 15 -13 17 -11 7 7 -7 26 -19 26 -6 0 -6 -6 2 -15z"/>
<path d="M5175 5210 c3 -5 10 -10 16 -10 5 0 9 5 9 10 0 6 -7 10 -16 10 -8 0
-12 -4 -9 -10z"/>
<path d="M3167 4844 c-4 -4 -7 -14 -7 -23 0 -11 3 -12 11 -4 6 6 10 16 7 23
-2 6 -7 8 -11 4z"/>
<path d="M4615 4830 c3 -5 12 -7 20 -3 21 7 19 13 -6 13 -11 0 -18 -4 -14 -10z"/>
<path d="M4790 4790 c-9 -6 -10 -10 -3 -10 6 0 15 5 18 10 8 12 4 12 -15 0z"/>
<path d="M2815 4310 c-3 -5 -1 -10 4 -10 6 0 11 5 11 10 0 6 -2 10 -4 10 -3 0
-8 -4 -11 -10z"/>
<path d="M5394 4278 c2 -7 10 -30 17 -50 12 -38 30 -53 24 -20 -12 60 -16 70
-31 76 -10 4 -14 2 -10 -6z"/>
<path d="M4228 4252 c-10 -2 -18 -8 -18 -13 0 -14 47 -11 53 4 5 14 -4 16 -35
9z"/>
<path d="M3668 3988 c-29 -39 -41 -68 -28 -68 10 0 24 19 26 39 2 7 13 24 25
37 12 13 18 24 12 24 -6 0 -22 -15 -35 -32z"/>
<path d="M3270 3925 c-8 -9 -8 -15 -2 -15 12 0 26 19 19 26 -2 2 -10 -2 -17
-11z"/>
<path d="M3395 3920 c-3 -5 -2 -10 4 -10 5 0 13 5 16 10 3 6 2 10 -4 10 -5 0
-13 -4 -16 -10z"/>
<path d="M3397 3873 c-12 -12 -7 -22 8 -17 8 4 15 10 15 15 0 11 -14 12 -23 2z"/>
<path d="M3580 3530 c0 -5 5 -10 11 -10 5 0 7 5 4 10 -3 6 -8 10 -11 10 -2 0
-4 -4 -4 -10z"/>
<path d="M3635 3530 c3 -5 8 -10 11 -10 2 0 4 5 4 10 0 6 -5 10 -11 10 -5 0
-7 -4 -4 -10z"/>
<path d="M3673 3075 c-3 -9 -3 -18 -1 -21 3 -3 8 4 11 16 6 23 -1 27 -10 5z"/>
<path d="M3611 3044 c-26 -43 -27 -64 -3 -64 14 0 14 2 3 9 -12 8 -12 13 1 33
16 25 29 58 24 58 -2 0 -13 -16 -25 -36z"/>
<path d="M3647 3023 c-4 -3 -7 -11 -7 -17 0 -6 5 -5 12 2 6 6 9 14 7 17 -3 3
-9 2 -12 -2z"/>
<path d="M3931 2854 c-13 -29 -7 -46 14 -38 8 4 12 11 8 18 -4 6 -6 19 -5 29
5 25 -3 21 -17 -9z"/>
<path d="M4555 2830 c3 -5 8 -10 11 -10 2 0 4 5 4 10 0 6 -5 10 -11 10 -5 0
-7 -4 -4 -10z"/>
<path d="M4905 2820 c-3 -5 -1 -10 4 -10 6 0 11 5 11 10 0 6 -2 10 -4 10 -3 0
-8 -4 -11 -10z"/>
<path d="M4290 2811 c0 -10 19 -25 25 -20 1 2 -3 10 -11 17 -8 7 -14 8 -14 3z"/>
<path d="M4430 2810 c0 -5 5 -10 11 -10 5 0 7 5 4 10 -3 6 -8 10 -11 10 -2 0
-4 -4 -4 -10z"/>
<path d="M4070 2785 c0 -8 2 -15 4 -15 2 0 6 7 10 15 3 8 1 15 -4 15 -6 0 -10
-7 -10 -15z"/>
<path d="M4605 2790 c3 -5 8 -10 11 -10 2 0 4 5 4 10 0 6 -5 10 -11 10 -5 0
-7 -4 -4 -10z"/>
<path d="M4775 2750 c-4 -6 -11 -7 -17 -4 -7 4 -8 2 -4 -5 6 -9 11 -9 22 0 14
11 18 19 10 19 -3 0 -8 -5 -11 -10z"/>
<path d="M4330 2742 c0 -12 19 -26 26 -19 2 2 -2 10 -11 17 -9 8 -15 8 -15 2z"/>
<path d="M3025 5299 c-4 -6 -5 -12 -2 -15 2 -3 7 2 10 11 7 17 1 20 -8 4z"/>
<path d="M3215 3400 c-3 -5 -2 -10 4 -10 5 0 13 5 16 10 3 6 2 10 -4 10 -5 0
-13 -4 -16 -10z"/>
<path d="M4180 1940 c-9 -6 -10 -10 -3 -10 6 0 15 5 18 10 8 12 4 12 -15 0z"/>
<path d="M3925 1690 c-3 -5 -2 -10 4 -10 5 0 13 5 16 10 3 6 2 10 -4 10 -5 0
-13 -4 -16 -10z"/>
<path d="M5477 1583 c19 -17 34 -40 36 -58 4 -27 4 -26 6 7 1 29 -5 41 -25 57
-40 31 -53 25 -17 -6z"/>
<path d="M5980 1446 c0 -9 89 -49 138 -62 66 -17 67 -17 52 1 -7 8 -27 15 -46
15 -18 0 -36 5 -40 12 -4 7 -3 8 4 4 7 -4 12 -3 12 3 0 5 -12 12 -27 15 -56
11 -93 16 -93 12z"/>
<path d="M187 638 c-83 -209 -95 -248 -113 -371 -8 -62 -24 -145 -34 -184 -14
-59 -15 -73 -5 -73 20 0 23 8 55 137 16 65 35 134 43 153 13 29 33 145 51 285
2 17 18 65 35 109 18 43 30 80 28 82 -2 2 -29 -60 -60 -138z"/>
<path d="M3186 561 c5 -5 25 -12 44 -15 l35 -6 -35 14 c-42 17 -58 20 -44 7z"/>
<path d="M3308 523 c7 -3 16 -2 19 1 4 3 -2 6 -13 5 -11 0 -14 -3 -6 -6z"/>
<path d="M5720 496 c0 -2 8 -10 18 -17 15 -13 16 -12 3 4 -13 16 -21 21 -21
13z"/>
<path d="M5770 435 c13 -14 26 -25 28 -25 3 0 -5 11 -18 25 -13 14 -26 25 -28
25 -3 0 5 -11 18 -25z"/>
<path d="M6018 293 c7 -3 16 -2 19 1 4 3 -2 6 -13 5 -11 0 -14 -3 -6 -6z"/>
<path d="M6063 283 c9 -2 23 -2 30 0 6 3 -1 5 -18 5 -16 0 -22 -2 -12 -5z"/>
<path d="M6190 256 c0 -3 9 -10 20 -16 11 -6 20 -8 20 -6 0 3 -9 10 -20 16
-11 6 -20 8 -20 6z"/>
<path d="M6408 103 c7 -3 16 -2 19 1 4 3 -2 6 -13 5 -11 0 -14 -3 -6 -6z"/>
<path d="M6453 93 c9 -2 23 -2 30 0 6 3 -1 5 -18 5 -16 0 -22 -2 -12 -5z"/>
<path d="M6580 66 c0 -3 9 -10 20 -16 11 -6 20 -8 20 -6 0 3 -9 10 -20 16 -11
6 -20 8 -20 6z"/>
</g>
</svg>
